<?xml version="1.0" encoding="utf-8"?>
<!-- Generator: Adobe Illustrator 24.3.0, SVG Export Plug-In . SVG Version: 6.00 Build 0)  -->
<svg version="1.1" id="Capa_1" xmlns="http://www.w3.org/2000/svg" xmlns:xlink="http://www.w3.org/1999/xlink" x="0px" y="0px"
	 viewBox="0 0 512 409.6" style="enable-background:new 0 0 512 409.6;" xml:space="preserve">
<style type="text/css">
	.st0{fill:#E8EDFC;}
	.st1{fill:#CAD9FC;}
	.st2{fill:#A4C2F7;}
	.st3{fill:#7FACFA;}
	.st4{fill:#428DFF;}
</style>
<g id="Page-1">
	<g id="_x30_37---404-Page">
		<path id="Shape" class="st0" d="M503.5,76.8v290.1c0,18.9-15.3,34.1-34.1,34.1H42.7c-18.9,0-34.1-15.3-34.1-34.1V76.8H503.5z"/>
		<path id="Shape_1_" class="st1" d="M477.9,76.8v290.1c0,18.9-15.3,34.1-34.1,34.1h25.6c18.9,0,34.1-15.3,34.1-34.1V76.8H477.9z"/>
		<path id="Shape_2_" class="st2" d="M503.5,42.7v34.1H8.5V42.7c0-18.9,15.3-34.1,34.1-34.1h426.7C488.2,8.5,503.5,23.8,503.5,42.7z
			"/>
		<path id="Shape_3_" class="st3" d="M469.3,8.5h-25.6c18.9,0,34.1,15.3,34.1,34.1v34.2h25.6V42.7C503.5,23.8,488.2,8.5,469.3,8.5z"
			/>
		<g>
			<path id="Shape_5_" class="st4" d="M281.6,34.1h-51.2c-4.7,0-8.5,3.8-8.5,8.5s3.8,8.5,8.5,8.5h51.2c4.7,0,8.5-3.8,8.5-8.5
				S286.3,34.1,281.6,34.1z"/>
			<path id="Shape_6_" class="st4" d="M469.3,34.1h-93.9c-4.7,0-8.5,3.8-8.5,8.5s3.8,8.5,8.5,8.5h93.9c4.7,0,8.5-3.8,8.5-8.5
				S474,34.1,469.3,34.1z"/>
			<path id="Shape_7_" class="st4" d="M8.7,341.3c-4.7,0-8.6-3.8-8.6-8.5s3.8-8.6,8.5-8.6h0.1c4.7,0,8.5,3.8,8.5,8.5
				S13.4,341.3,8.7,341.3z"/>
			<path id="Shape_8_" class="st4" d="M469.3,0H42.7C19.1,0,0,19.1,0,42.7v256c0,4.7,3.8,8.5,8.5,8.5s8.5-3.8,8.5-8.5V85.3h477.9
				v281.6c0,14.1-11.5,25.6-25.6,25.6H42.7c-14.1,0-25.6-11.5-25.6-25.6c0-4.7-3.8-8.5-8.5-8.5S0,362.2,0,366.9
				c0,23.6,19.1,42.6,42.7,42.7h426.7c23.6,0,42.6-19.1,42.7-42.7V42.7C512,19.1,492.9,0,469.3,0z M17.1,68.3V42.7
				c0-14.1,11.5-25.6,25.6-25.6h426.7c14.1,0,25.6,11.5,25.6,25.6v25.6H17.1z"/>
			<circle id="Oval" class="st4" cx="42.7" cy="42.7" r="8.5"/>
			<circle id="Oval_1_" class="st4" cx="76.8" cy="42.7" r="8.5"/>
			<circle id="Oval_2_" class="st4" cx="110.9" cy="42.7" r="8.5"/>
			<path id="Shape_9_" class="st4" d="M169.4,141c2.2-4,0.8-9-3-11.3c-3.9-2.4-8.9-1.3-11.5,2.4L94.6,230
				c-3.2,5.3-3.4,11.9-0.4,17.3s8.7,8.7,14.9,8.7h44.5v17.1c0,4.7,3.8,8.5,8.5,8.5s8.5-3.8,8.5-8.5V256h17.1c4.7,0,8.5-3.8,8.5-8.5
				s-3.8-8.5-8.5-8.5h-17.1v-17.1c0-4.7-3.8-8.5-8.5-8.5s-8.5,3.8-8.5,8.5V239h-44.5L169.4,141z"/>
			<path id="Shape_10_" class="st4" d="M391.3,141c1.8-2.6,2-6,0.6-8.8s-4.3-4.6-7.5-4.6s-6.1,1.7-7.6,4.5L316.5,230
				c-3.2,5.3-3.4,11.9-0.4,17.3s8.7,8.7,14.9,8.7h44.5v17.1c0,4.7,3.8,8.5,8.5,8.5s8.5-3.8,8.5-8.5V256h17.1c4.7,0,8.5-3.8,8.5-8.5
				s-3.8-8.5-8.5-8.5h-17.1v-17.1c0-4.7-3.8-8.5-8.5-8.5s-8.5,3.8-8.5,8.5V239H331L391.3,141z"/>
			<path id="Shape_11_" class="st4" d="M264.5,281.6c18.9,0,34.1-15.3,34.1-34.1v-85.3c0-18.9-15.3-34.1-34.1-34.1h-17.1
				c-18.9,0-34.1,15.3-34.1,34.1v85.3c0,18.9,15.3,34.1,34.1,34.1L264.5,281.6L264.5,281.6z M230.4,247.5v-85.3
				c0-9.4,7.6-17.1,17.1-17.1h17.1c9.4,0,17.1,7.6,17.1,17.1v85.3c0,9.4-7.6,17.1-17.1,17.1h-17.1
				C238,264.5,230.4,256.9,230.4,247.5z"/>
			<path id="Shape_12_" class="st4" d="M145.1,332.8c0,4.7,3.8,8.5,8.5,8.5h204.8c4.7,0,8.5-3.8,8.5-8.5s-3.8-8.5-8.5-8.5H153.6
				C148.9,324.3,145.1,328.1,145.1,332.8z"/>
			<path id="Shape_13_" class="st4" d="M230.4,358.4c-4.7,0-8.5,3.8-8.5,8.5s3.8,8.5,8.5,8.5h51.2c4.7,0,8.5-3.8,8.5-8.5
				s-3.8-8.5-8.5-8.5H230.4z"/>
		</g>
	</g>
</g>
</svg>
