<?xml version="1.0" encoding="utf-8"?>
<!-- Generator: Adobe Illustrator 23.0.1, SVG Export Plug-In . SVG Version: 6.00 Build 0)  -->
<svg version="1.1" id="logo" xmlns="http://www.w3.org/2000/svg" xmlns:xlink="http://www.w3.org/1999/xlink" x="0px" y="0px"
	 viewBox="0 0 180 180" style="enable-background:new 0 0 180 180;" xml:space="preserve">
<style type="text/css">
	.st0{fill:#2980B9;stroke:#FFFFFF;stroke-width:2;stroke-miterlimit:10;}
	.st1{fill:#FFFFFF;}
</style>
<circle id="Bg" class="st0" cx="90" cy="90" r="86.2"/>
<g id="formas">
	<g>
		<g>
			<rect x="43.4" y="63.5" class="st1" width="4.5" height="13.7"/>
			<rect x="94.4" y="63.5" class="st1" width="4.5" height="13.7"/>
		</g>
	</g>
	<g>
		<g>
			<circle class="st1" cx="119.8" cy="54.3" r="1.7"/>
			<circle class="st1" cx="115.8" cy="63.4" r="1.7"/>
			<circle class="st1" cx="138.3" cy="54.3" r="1.7"/>
			<circle class="st1" cx="119.3" cy="72.1" r="1.7"/>
			<circle class="st1" cx="138.5" cy="71.9" r="1.7"/>
			<circle class="st1" cx="128.8" cy="76.2" r="1.7"/>
			<circle class="st1" cx="141.7" cy="63.3" r="1.7"/>
			<path class="st1" d="M130.1,59V48.8h-2.7V59c-1.8,0.6-3.2,2.3-3.2,4.4c0,2.6,2.1,4.5,4.5,4.5c2.6,0,4.5-2.1,4.5-4.5
				C133.3,61.3,132,59.6,130.1,59z"/>
		</g>
		<path class="st1" d="M128.8,41.8c-11.9,0-21.7,9.7-21.7,21.7c0,9,5.6,16.8,13.5,20.1v9.9h5.8v36.3l0,0c0,0.9-0.2,2.6-0.7,3
			c-1,0.9-3,1.1-3.6,1h-10.2l0,0v-10H99.2c1.2,0,2.1-1,2.1-2.1V86.3h-9.1V52.6c0-1.9-1.6-3.4-3.4-3.4H53.6c-1.9,0-3.4,1.6-3.4,3.4
			v33.7h-9.1v35.3c0,1.1,1,2.1,2.1,2.1H29.7v14.6l0,0h92.5c1.1,0,4.5-0.1,6.7-2.3c2.2-2.1,2.2-5.7,2.2-6.4V93.2h5.8v-9.9
			c7.9-3.2,13.5-10.9,13.5-20.1C150.5,51.5,140.7,41.8,128.8,41.8z M93.2,96.4v4h-8.8v-4H93.2z M72.4,63.3h15.7v11.3H72.4V63.3z
			 M81.1,82.9v17.5H62V82.9H81.1z M54.2,63.3H70v11.3H54.2V63.3z M49.1,96.4H58v4h-8.9V96.4z M46.8,123.6c1.2,0,2.1-1,2.1-2.1V114
			h2.4v7.5c0,1.1,1,2.1,2.1,2.1H46.8z M57.3,123.6c1.1,0,2.1-1,2.1-2.1V114h23.5v7.5c0,1.1,1,2.1,2.1,2.1H57.3z M88.8,123.6
			c1.2,0,2.1-1,2.1-2.1V114h2.4v7.5c0,1.1,1,2.1,2.1,2.1H88.8z M128.8,80.8c-9.6,0-17.4-7.8-17.4-17.4S119.2,46,128.8,46
			s17.4,7.8,17.4,17.4S138.4,80.8,128.8,80.8z"/>
	</g>
</g>
</svg>
